HIERARCHY
ROOT Hips
{
  OFFSET -69.4423 88.0299 51.6846
  CHANNELS 6 Xposition Yposition Zposition Zrotation Xrotation Yrotation
  JOINT Spine
  {
    OFFSET 12.0259 -0.162853 1.93176e-005
    CHANNELS 3 Zrotation Xrotation Yrotation
    JOINT Spine1
    {
      OFFSET 15.3169 -0.0121909 0
      CHANNELS 3 Zrotation Xrotation Yrotation
      JOINT Spine2
      {
        OFFSET 15.3176 -0.0121922 0
        CHANNELS 3 Zrotation Xrotation Yrotation
        JOINT Neck
        {
          OFFSET 19.9142 1.56236 0
          CHANNELS 3 Zrotation Xrotation Yrotation
          JOINT Head
          {
            OFFSET 6.92646 0 0
            CHANNELS 3 Zrotation Xrotation Yrotation
            End Site
            {
              OFFSET 20.7666 0 0
            }
          }
          JOINT LeftShoulder
          {
            OFFSET -4.94072 -1.14703 8.14416
            CHANNELS 3 Zrotation Xrotation Yrotation
            JOINT LeftArm
            {
              OFFSET 14.108 0 -2.74767e-005
              CHANNELS 3 Zrotation Xrotation Yrotation
              JOINT LeftForeArm
              {
                OFFSET 28.5802 -0.0783412 -0.0284884
                CHANNELS 3 Zrotation Xrotation Yrotation
                JOINT LeftHand
                {
                  OFFSET 27.092 0 0
                  CHANNELS 3 Zrotation Xrotation Yrotation
                  End Site
                  {
                    OFFSET 9.55928 -0.186424 0.145352
                  }
                }
              }
            }
          }
          JOINT RightShoulder
          {
            OFFSET -7.15748 -1.33027 -6.24935
            CHANNELS 3 Zrotation Xrotation Yrotation
            JOINT RightArm
            {
              OFFSET 14.108 0 1.82997e-005
              CHANNELS 3 Zrotation Xrotation Yrotation
              JOINT RightForeArm
              {
                OFFSET 28.5802 -0.0707221 2.30684e-005
                CHANNELS 3 Zrotation Xrotation Yrotation
                JOINT RightHand
                {
                  OFFSET 27.092 0 -1.30073e-005
                  CHANNELS 3 Zrotation Xrotation Yrotation
                  End Site
                  {
                    OFFSET 9.55929 -0.186417 -0.145354
                  }
                }
              }
            }
          }
        }
      }
    }
  }
  JOINT LeftUpLeg
  {
    OFFSET 0.00499725 -0.534999 8.837
    CHANNELS 3 Zrotation Xrotation Yrotation
    JOINT LeftLeg
    {
      OFFSET 39.9035 -0.00124594 0.000252775
      CHANNELS 3 Zrotation Xrotation Yrotation
      JOINT LeftFoot
      {
        OFFSET 39.6689 0 0
        CHANNELS 3 Zrotation Xrotation Yrotation
        JOINT LeftToe
        {
          OFFSET 10.1624 13.6296 0
          CHANNELS 3 Zrotation Xrotation Yrotation
          End Site
          {
            OFFSET 8.38147 0 0
          }
        }
      }
    }
  }
  JOINT RightUpLeg
  {
    OFFSET 0.00499725 -0.535 -8.837
    CHANNELS 3 Zrotation Xrotation Yrotation
    JOINT RightLeg
    {
      OFFSET 39.9036 -0.000268477 0.000106433
      CHANNELS 3 Zrotation Xrotation Yrotation
      JOINT RightFoot
      {
        OFFSET 39.6689 1.17892e-005 0
        CHANNELS 3 Zrotation Xrotation Yrotation
        JOINT RightToe
        {
          OFFSET 10.1624 13.6296 0
          CHANNELS 3 Zrotation Xrotation Yrotation
          End Site
          {
            OFFSET 8.38147 0 0
          }
        }
      }
    }
  }
}
MOTION
Frames:	11
Frame Time:	0.0333333
15.6316 87.5033 -43.0815 92.0527 27.3995 -0.191089 1.27419 -0.197781 0.352945 2.5496 -0.38717 0.710358 2.54959 -0.387177 0.710339 -14.9715 0.38262 -9.73101 47.4114 0.667473 7.41456 -166.509 -0.390271 -93.8623 -36.5523 1.91281 81.6343 -33.7107 4.44317 -20.465 12.6828 -87.1315 14.8295 -166.676 -3.04018 75.3477 -16.4951 -8.877 -83.5208 -26.8764 -3.65184 16.3079 9.64366 87.022 -9.58663 5.94723 -8.889 175.265 -13.8726 1.07005 -1.15383 3.45151 17.7098 1.00576 90 4.77083e-015 7.95139e-015 -27.0812 5.49427 174.603 -24.3746 -0.401858 0.57218 -5.19748 -11.4104 -3.19206 90 2.14687e-014 2.22639e-014 
12.7882 87.552 -42.3607 91.7781 29.3555 -0.01181 1.23738 -0.242578 0.357118 2.47628 -0.476863 0.719547 2.47628 -0.476881 0.71954 -14.4849 0.609099 -9.76594 46.9229 1.08274 7.08303 -166.964 -0.132018 -93.8697 -35.3252 2.37703 82.2675 -32.1648 4.09845 -19.6648 11.388 -86.6406 13.625 -167.115 -2.68955 75.1869 -15.4639 -9.06189 -83.4614 -25.9757 -3.43762 15.8453 9.36511 86.7907 -9.307 6.97469 -10.9657 175.817 -15.392 1.08662 -1.1173 2.37498 18.0963 1.26571 90 6.36111e-015 1.15295e-014 -26.0007 4.51138 174.973 -26.2975 -0.438048 0.546241 -6.62681 -13.2355 -3.81218 90 7.95139e-015 3.18055e-015 
9.88684 87.9376 -41.5078 91.2705 31.7 -0.55735 1.24115 -0.296643 0.51942 2.485 -0.581478 1.04532 2.48499 -0.581468 1.04531 -14.1824 0.71975 -9.49184 47.1578 1.221 6.74679 -167.251 0.0476142 -93.4954 -34.061 2.93088 82.7619 -29.8946 3.59806 -18.4861 14.3903 -86.851 16.5723 -167.379 -2.41991 75.3457 -13.5153 -8.73714 -83.597 -24.7663 -3.15518 15.207 7.72592 85.9552 -7.654 6.59432 -13.2657 176.911 -19.635 1.13262 -1.02467 -0.799966 19.1631 2.15182 90 -1.11319e-014 -3.97569e-015 -23.9457 3.48736 175.931 -27.7819 -0.451195 0.513225 -5.38595 -11.2336 -3.08935 90 6.36111e-015 -0 
6.85772 88.3696 -40.6414 90.9971 32.7434 -1.36002 1.27409 -0.0435926 0.705235 2.54864 -0.0709977 1.41142 2.54863 -0.0709812 1.4114 -14.3683 0.652108 -9.14012 47.3511 0.906503 6.42848 -167.079 -0.030829 -92.9744 -31.1953 3.11428 83.2508 -27.2507 3.08908 -17.1041 10.1886 -85.182 12.4598 -167.175 -2.37118 75.5981 -12.1728 -8.19769 -83.5494 -23.5522 -2.87721 14.5513 7.28543 85.6576 -7.21644 4.7436 -13.6559 177.696 -25.7189 1.20826 -0.839598 -6.16855 20.8834 3.81381 90 -4.77083e-015 -4.77083e-015 -21.4502 3.14918 177.32 -27.8368 -0.485364 0.472595 -4.06491 -9.72243 -2.54786 90 4.77083e-015 1.59028e-014 
4.00565 88.7986 -39.4607 91.1308 34.313 -1.07938 1.23213 0.142827 0.636102 2.46261 0.299807 1.26913 2.46261 0.299769 1.26913 -14.6628 0.429433 -9.31304 47.5703 0.659483 6.86293 -166.858 -0.493815 -92.9329 -28.5923 4.028 84.1357 -24.9885 2.68166 -15.8706 8.46352 -83.2583 10.7821 -166.91 -2.60892 75.4326 -11.5561 -8.11062 -83.7161 -22.9954 -2.75211 14.2439 6.77517 85.3034 -6.71594 1.91858 -13.1944 177.379 -30.4899 1.30498 -0.658675 -18.4546 22.4082 7.91757 90 -6.36111e-015 -9.54166e-015 -19.2572 2.69438 177.244 -27.9392 -0.512886 0.437675 -3.0231 -9.15106 -2.32937 90 -1.74931e-014 -6.36111e-015 
1.23424 88.9373 -38.7695 91.1497 36.8147 -2.27965 1.1565 0.133819 0.946096 2.31065 0.28716 1.88946 2.31065 0.287156 1.88944 -14.475 0.291175 -9.89693 47.1488 0.610638 7.30256 -167.097 -0.851648 -93.3713 -26.5884 4.78023 84.8689 -22.7447 2.28917 -14.6562 7.08525 -82.5483 9.46088 -167.168 -2.82344 74.8404 -13.2538 -9.34817 -83.6858 -23.5445 -2.87116 14.5474 8.81606 86.4034 -8.76273 -1.84086 -12.6307 179.327 -35.4621 1.27474 -0.503754 -34.135 20.916 12.9747 90 1.11319e-014 9.54166e-015 -16.9725 2.16282 179.184 -27.8575 -0.558062 0.41635 -1.5268 -6.666 -1.70021 90 -4.6118e-014 -4.45278e-014 
-1.34384 88.9899 -37.8097 90.8943 39.3525 -2.91147 1.1849 0.178068 0.973477 2.36664 0.376699 1.94323 2.36662 0.376694 1.94321 -14.6249 0.0138892 -9.55852 46.8289 0.346829 7.73321 -166.986 -1.16627 -92.8877 -26.6878 6.36728 83.9702 -21.0199 1.98303 -13.6521 5.34487 -81.4183 7.66823 -167.056 -3.05393 75.2537 -13.886 -9.00747 -84.4276 -23.6803 -2.89455 14.6097 7.04458 85.561 -6.99362 -5.77222 -12.3002 -179.545 -40.6173 1.20126 -0.301061 -42.9794 21.884 17.6372 90 -3.18055e-015 -0 -14.3463 0.535566 -179.817 -27.5378 -0.602539 0.38765 0.253633 -5.37405 -1.38448 90 9.54166e-015 -0 
-3.88716 89.2859 -36.6988 90.2246 40.8992 -3.20615 1.22016 0.302748 1.12279 2.43422 0.629762 2.23906 2.43422 0.629775 2.23906 -14.3283 0.0143091 -9.48685 46.2071 0.313717 7.55925 -167.303 -1.18614 -92.7955 -25.8941 7.76647 84.0636 -19.9215 1.8111 -13.003 4.18177 -79.3845 6.51074 -167.342 -2.98288 75.2957 -15.202 -8.85743 -84.0834 -23.4913 -2.83916 14.4906 6.63655 85.5439 -6.54003 -9.94832 -11.2812 -178.453 -48.023 1.17183 -0.158333 -27.1042 24.8652 12.0924 90 9.54166e-015 7.95139e-015 -10.6615 -0.231275 -178.655 -25.3796 -0.647939 0.340184 0.858421 -4.41293 -1.18296 90 1.43125e-014 9.54166e-015 
-6.17388 89.5857 -35.5244 90.0692 42.2702 -3.02867 1.29124 0.606787 1.14817 2.5703 1.23958 2.2827 2.5703 1.23959 2.2827 -14.5001 -0.141046 -9.93086 45.868 0.269442 8.09206 -167.186 -1.55856 -93.1471 -23.7684 7.98145 84.2898 -19.0239 1.6936 -12.5038 3.66304 -76.6919 5.93148 -167.204 -3.28974 74.8996 -16.5159 -8.7009 -83.2865 -24.3377 -3.02535 14.9357 7.83844 86.3486 -7.75524 -13.623 -8.88385 -177.67 -51.7434 0.977653 -0.0877014 -14.9126 20.0663 5.77999 90 -3.81667e-014 -3.65764e-014 -8.11177 -0.219191 -178.199 -24.4345 -0.678326 0.308205 1.60501 -3.08041 -0.968544 90 0 -6.36111e-015 
-8.33752 89.6102 -34.2979 89.9423 43.7233 -2.79426 1.39058 0.855885 1.09434 2.76504 1.73838 2.1681 2.76503 1.73837 2.16808 -15.2274 -0.259089 -9.92699 46.7104 0.0438606 8.28256 -166.498 -1.84292 -93.0422 -21.254 7.98705 84.1008 -18.4183 1.62568 -12.1605 3.93944 -76.7951 6.24409 -166.475 -3.54021 74.9388 -16.4054 -7.16809 -82.3567 -24.0606 -2.96229 14.7787 7.00497 85.8716 -6.90751 -16.7548 -6.81108 -177.333 -52.3689 0.863333 -0.146263 -8.60982 16.0418 3.18662 90 -6.36111e-015 -6.36111e-015 -5.80504 -0.0141797 -177.742 -24.0231 -0.701004 0.286514 2.83461 -1.02087 -0.722417 90 -1.59028e-014 6.36111e-015 
-10.3131 89.4292 -33.1028 90.0451 45.3266 -3.21071 1.39552 1.06288 1.15663 2.76517 2.15382 2.28788 2.76516 2.15382 2.28787 -14.9788 -0.423317 -9.81499 46.3357 -0.22691 8.30213 -166.799 -1.98734 -92.9184 -20.0784 8.51106 84.5009 -18.3899 1.63517 -12.1311 5.94861 -79.5801 8.30919 -166.714 -3.64319 75.0845 -16.8472 -6.31434 -81.3355 -24.2767 -3.01353 14.8946 7.14311 85.9714 -7.05299 -19.56 -5.72819 -176.883 -50.6042 0.802252 -0.280881 -4.21183 13.9954 2.07182 90 -3.18055e-014 -1.59028e-014 -3.89889 -1.0252 -176.898 -23.7208 -0.726642 0.252301 3.57266 0.280354 -0.617779 90 -6.36111e-015 -3.18055e-015 
